<svg xmlns:dc="http://purl.org/dc/elements/1.1/" xmlns:cc="http://creativecommons.org/ns#" xmlns:rdf="http://www.w3.org/1999/02/22-rdf-syntax-ns#" xmlns:svg="http://www.w3.org/2000/svg" xmlns="http://www.w3.org/2000/svg" xmlns:sodipodi="http://sodipodi.sourceforge.net/DTD/sodipodi-0.dtd" xmlns:inkscape="http://www.inkscape.org/namespaces/inkscape" width="100" height="100" viewBox="0 0 80 80" version="1.1" id="svg2" inkscape:version="0.48.2 r9819" sodipodi:docname="tug of war.svg">
  <metadata id="metadata10">
    <rdf:RDF>
      <cc:Work rdf:about="">
        <dc:format>image/svg+xml</dc:format>
        <dc:type rdf:resource="http://purl.org/dc/dcmitype/StillImage"/>
        <dc:title/>
      </cc:Work>
    </rdf:RDF>
  </metadata>
  <defs id="defs8"/>
  <sodipodi:namedview pagecolor="#ffffff" bordercolor="#666666" borderopacity="1" objecttolerance="10" gridtolerance="10" guidetolerance="10" inkscape:pageopacity="0" inkscape:pageshadow="2" inkscape:window-width="1600" inkscape:window-height="853" id="namedview6" showgrid="false" inkscape:zoom="2.8284271" inkscape:cx="134.75945" inkscape:cy="47.312078" inkscape:window-x="-4" inkscape:window-y="-4" inkscape:window-maximized="1" inkscape:current-layer="svg2" showguides="true" inkscape:guide-bbox="true"/>
  <g id="g3041" transform="matrix(-0.24587194,0.37331924,-0.37331924,-0.24587194,82.468408,25.122875)" style="fill:#000000;stroke:none"/>
  <path style="fill:#000000;fill-opacity:1;stroke:none" d="m 15.304566,50.028099 1.055205,-3.170044 c 0.172539,-0.518339 1.709707,0.295411 2.056719,0.717346 l 14.390169,17.497132 c 0.347011,0.421934 0.272382,1.044815 -0.154275,1.386003 l -2.567128,2.052876 c -0.426657,0.341184 -1.044815,0.272374 -1.386001,-0.154277 L 15.15029,51.4141 c -0.341187,-0.426656 -0.01826,-0.867662 0.154276,-1.386001 z" id="rect3881-5-4" inkscape:connector-curvature="0" sodipodi:nodetypes="sssssssss"/>
  <path style="fill:#000000;fill-opacity:1;stroke:none" d="m 10.775409,50.827161 2.853819,-1.630999 c 0.474305,-0.271073 0.967218,-0.294955 1.105185,-0.05355 l 5.478824,9.586504 c 0.137967,0.241404 -0.132804,0.65398 -0.607109,0.92505 l -2.85382,1.630999 c -0.474305,0.27107 -0.967215,0.294953 -1.105194,0.05336 L 10.271415,50.839949 c -0.126726,-0.247491 0.02969,0.258093 0.503984,-0.01298 z" id="rect3881-5-0" inkscape:connector-curvature="0" sodipodi:nodetypes="cssssscscc"/>
  <path inkscape:connector-curvature="0" id="path7312" d="m 17.47998,56.618282 2.225179,1.997264 c 0.369829,0.331942 0.492139,0.780719 0.274242,1.006225 l -8.652687,8.954886 c -0.217886,0.225503 -0.691035,0.13981 -1.060856,-0.19214 L 8.0406783,66.387254 c -0.369827,-0.331941 -0.492136,-0.780722 -0.274061,-1.006305 l 8.6526867,-8.954887 c 0.217892,-0.2255 0.691033,-0.139809 1.060857,0.192139 z" style="fill:#000000;fill-opacity:1;stroke:none"/>
  <path style="fill:#000000;fill-opacity:1;stroke:none" d="m 10.586225,22.990637 c 0.143061,2.71929 -1.9453837,5.039681 -4.6646727,5.182743 -2.719289,0.143061 -5.03968201,-1.945384 -5.18274301,-4.664673 -0.14306103,-2.719289 1.94538501,-5.039682 4.66467201,-5.182743 2.719291,-0.143061 5.0396827,1.945385 5.1827437,4.664673 z" id="path3879-9-8" inkscape:connector-curvature="0"/>
  <path style="fill:#000000;fill-opacity:1;stroke:none" d="m 49.114883,27.7686 c -0.384211,0.0097 -0.740211,0.238013 -0.888311,0.620038 l -0.299053,0.820548 c -0.06934,0.178117 -0.163127,0.822789 0.421241,0.792125 l 0.02487,-0.320302 0.07699,-0.336498 c -0.353027,0.416911 -0.305002,1.043255 0.111905,1.396284 2.057433,2.01513 4.594992,3.742684 6.65723,5.697338 0.310927,0.315761 0.744017,0.650701 1.284063,0.524018 l 3.74056,-1.602416 -4.421961,12.395785 c -0.244561,0.686118 -0.07344,1.367686 0.387811,1.532098 l 6.658615,2.38011 c 0.461261,0.164414 1.021335,-0.255334 1.265897,-0.941452 l 6.855526,-19.200677 c 0.244561,-0.686119 0.05854,-1.368565 -0.402702,-1.532976 L 63.92807,27.627404 c -0.42081,-0.149997 -0.92391,0.185135 -1.195792,0.766273 l -5.425765,0.785769 -7.807098,-1.343343 c -0.127341,-0.04937 -0.256461,-0.07074 -0.384532,-0.0675 z m 10.119131,4.453326 -2.544807,1.090169 -0.740083,-0.62642 c 0.0606,0.0025 0.117168,0.0048 0.179571,-0.0043 z" id="path7416" inkscape:connector-curvature="0" sodipodi:nodetypes="scccccccccccccccccccsccccc"/>
  <path inkscape:connector-curvature="0" id="path7418" d="m 58.792713,50.18691 -2.554049,-2.069131 c -0.424476,-0.34389 -1.043058,-0.279009 -1.386949,0.145474 L 41.195458,65.119927 c -0.343892,0.424483 -0.279008,1.043063 0.145475,1.386956 l 2.554043,2.069131 c 0.424477,0.343885 1.043064,0.279002 1.386949,-0.145475 L 58.938188,51.573863 c 0.343886,-0.424483 0.279008,-1.043062 -0.145475,-1.386953 z" style="fill:#000000;fill-opacity:1;stroke:none"/>
  <path inkscape:connector-curvature="0" id="path7420" d="m 63.316704,51.01471 -2.843406,-1.649084 c -0.472574,-0.274077 -0.965326,-0.301089 -1.104823,-0.06055 l -5.539577,9.551528 c -0.139496,0.240523 0.128651,0.65481 0.601225,0.928885 l 2.843409,1.649085 c 0.472577,0.274076 0.965323,0.301087 1.104831,0.06037 l 5.539576,-9.551528 C 64.057436,51.70289 63.789288,51.288608 63.316715,51.01453 z" style="fill:#000000;fill-opacity:1;stroke:none"/>
  <path style="fill:#000000;fill-opacity:1;stroke:none" d="m 56.575501,56.76315 -2.237812,1.983097 c -0.371928,0.329586 -0.497086,0.777579 -0.280629,1.004462 l 8.595666,9.00964 c 0.216451,0.226883 0.690133,0.144195 1.062056,-0.185401 l 2.237814,-1.983096 c 0.371928,-0.329585 0.49708,-0.777581 0.280448,-1.004543 l -8.595668,-9.009641 c -0.216453,-0.22688 -0.690132,-0.144194 -1.062055,0.1854 z" id="path7422" inkscape:connector-curvature="0"/>
  <path style="fill:#000000;stroke:none" d="M 65.147666,46.715291 62.961125,60.664554 48.465282,53.644206 57.941131,43.425571 z" id="path3901-8-1" inkscape:connector-curvature="0" sodipodi:nodetypes="ccccc"/>
  <path style="fill:#000000;fill-opacity:1;stroke:none" d="m 69.768786,18.938077 c -2.518085,-0.04993 -4.60944,2.048977 -4.670594,4.68326 -0.06115,2.63428 1.931942,4.81044 4.450033,4.860372 2.040186,0.04046 3.806656,-1.335794 4.430127,-3.272733 0.671968,0.766049 2.013567,1.265336 3.015653,1.102992 1.307427,-0.211532 2.12727,-2.030101 2.12727,-2.030101 -1.330007,1.04638 -2.224335,1.138901 -2.919928,0.725169 0.445318,0.018 0.882165,-0.03962 1.250597,-0.18528 1.238596,-0.490024 1.679933,-2.445041 1.679933,-2.445041 -2.746252,3.286193 -3.996373,0.133281 -6.008033,-1.816056 -0.06369,-0.07376 -0.132893,-0.146099 -0.200087,-0.215331 0.0018,0.0103 0.006,0.01797 0.0076,0.0282 -0.803204,-0.862808 -1.917355,-1.410761 -3.162568,-1.435454 z" id="path3782" inkscape:connector-curvature="0"/>
  <path style="fill:#000000;fill-opacity:1;stroke:none" d="m 24.172037,27.309455 -6.980789,1.649523 -6.482688,-1.539285 c -0.04495,-0.01306 -0.08995,-0.0035 -0.134852,-0.0078 -2.2261027,0.566025 -4.6449427,1.549537 -6.9417257,2.351896 -0.462293,0.16148 -0.637731,0.841947 -0.39753,1.529606 l 6.718594,19.244596 c 0.2402007,0.687657 0.8124947,1.110167 1.2747897,0.948686 l 6.673592,-2.337788 c 0.462296,-0.161482 0.63773,-0.84195 0.397529,-1.529607 l -4.343175,-12.423607 3.714631,1.612017 c 0.501096,0.217596 0.784871,0.03045 1.302261,-0.516637 1.959301,-1.901427 4.505811,-3.831034 6.693265,-5.654959 0.469145,-0.312875 0.632033,-0.460721 0.481662,-1.004865 -0.226651,-0.812837 -0.410037,-0.982598 -0.706248,-1.761134 -0.30263,-0.884913 -0.744688,-0.633213 -1.269316,-0.560642 z m -2.9761,3.498308 -3.672055,2.36284 -4.922787,-2.145959 5.068632,1.052295 c 1.112179,-0.517421 2.339229,-0.818649 3.52621,-1.269176 z" id="rect3877-4-7" inkscape:connector-curvature="0" sodipodi:nodetypes="cccccccccccccccccccccc"/>
  <path style="font-size:medium;font-style:normal;font-variant:normal;font-weight:normal;font-stretch:normal;text-indent:0;text-align:start;text-decoration:none;line-height:normal;letter-spacing:normal;word-spacing:normal;text-transform:none;direction:ltr;block-progression:tb;writing-mode:lr-tb;text-anchor:start;baseline-shift:baseline;color:#000000;fill:#000000;fill-opacity:1;stroke:none;stroke-width:1px;marker:none;visibility:visible;display:inline;overflow:visible;enable-background:accumulate;font-family:Sans;-inkscape-font-specification:Sans" d="m 24.267157,28.323045 -0.025,0.8 24.4,0.375 0.025,-0.8 -24.4,-0.375 z" id="path7628" inkscape:connector-curvature="0"/>
  <path style="font-size:medium;font-style:normal;font-variant:normal;font-weight:normal;font-stretch:normal;text-indent:0;text-align:start;text-decoration:none;line-height:normal;letter-spacing:normal;word-spacing:normal;text-transform:none;direction:ltr;block-progression:tb;writing-mode:lr-tb;text-anchor:start;baseline-shift:baseline;color:#000000;fill:#000000;fill-opacity:1;stroke:none;stroke-width:0.80000001px;marker:none;visibility:visible;display:inline;overflow:visible;enable-background:accumulate;font-family:Sans;-inkscape-font-specification:Sans" d="m 24.123407,28.885545 c -0.09362,0.156161 -0.245445,0.330279 -0.40625,0.5625 -0.160805,0.232221 -0.35017,0.532297 -0.34375,0.90625 l 0,0.0625 0.03125,0.03125 c 0.06249,0.324712 0.290693,0.550238 0.5,0.6875 0.209307,0.137262 0.409896,0.217513 0.5625,0.28125 0.138592,0.05201 0.267987,0.0974 0.34375,0.15625 0.07576,0.05885 0.08965,0.100567 0.09375,0.15625 l 0,0.0625 0.03125,0.03125 c 0.05382,0.146398 0.09124,0.299316 0.09375,0.40625 0.0025,0.106934 -0.0059,0.178185 -0.0625,0.25 l -0.03125,0.03125 -0.03125,0.03125 c -0.191302,0.40572 -0.447282,0.784387 -0.71875,1.1875 l -0.03125,0.0625 0,0.03125 c -0.212698,0.618863 0.117006,1.161523 0.28125,1.5 0.148497,0.272475 0.312884,0.543688 0.46875,0.78125 l 0.6875,-0.4375 c -0.153136,-0.233401 -0.31418,-0.464266 -0.4375,-0.6875 -0.0061,-0.0126 0.006,-0.01885 0,-0.03125 -0.175853,-0.363158 -0.317426,-0.647568 -0.25,-0.84375 0.240877,-0.358102 0.483811,-0.738756 0.6875,-1.15625 0.0041,-0.0083 -0.004,-0.02288 0,-0.03125 0.0087,-0.01176 0.02312,-0.01927 0.03125,-0.03125 0.14838,-0.218595 0.223987,-0.464557 0.21875,-0.6875 -0.0046,-0.197659 -0.07179,-0.369038 -0.125,-0.53125 -0.01256,-0.03829 -0.01792,-0.08874 -0.03125,-0.125 l -0.03125,0 c -0.061,-0.240522 -0.185055,-0.470478 -0.34375,-0.59375 -0.182493,-0.141758 -0.371138,-0.220609 -0.53125,-0.28125 -0.0099,-0.0041 -0.02141,0.0041 -0.03125,0 -0.162298,-0.06757 -0.307925,-0.154269 -0.40625,-0.21875 -0.08343,-0.05471 -0.107313,-0.07727 -0.125,-0.125 0.007,-0.128819 0.04749,-0.249192 0.15625,-0.40625 0.119017,-0.171874 0.285996,-0.372274 0.4375,-0.625 l -0.6875,-0.40625 z" id="path7630" inkscape:connector-curvature="0"/>
  <path style="font-size:medium;font-style:normal;font-variant:normal;font-weight:normal;font-stretch:normal;text-indent:0;text-align:start;text-decoration:none;line-height:normal;letter-spacing:normal;word-spacing:normal;text-transform:none;direction:ltr;block-progression:tb;writing-mode:lr-tb;text-anchor:start;baseline-shift:baseline;color:#000000;fill:#000000;fill-opacity:1;stroke:none;stroke-width:1px;marker:none;visibility:visible;display:inline;overflow:visible;enable-background:accumulate;font-family:Sans;-inkscape-font-specification:Sans" d="m 49.192157,29.198045 -0.225,0.775 c 0.457661,0.138838 0.628186,0.472458 0.675,0.975 0.04681,0.502542 -0.101599,1.114899 -0.325,1.45 -0.288289,0.432433 -0.515636,0.376913 -0.925,0.6 -0.204682,0.111544 -0.429874,0.319189 -0.55,0.625 -0.120126,0.305811 -0.15,0.712687 -0.15,1.275 0,0.368441 -0.08119,0.937633 0.175,1.45 l 0.725,-0.375 c -0.09198,-0.183967 -0.1,-0.661974 -0.1,-1.075 0,-0.510196 0.04051,-0.823543 0.1,-0.975 0.05949,-0.151457 0.105422,-0.173458 0.2,-0.225 0.189156,-0.103082 0.746098,-0.206647 1.175,-0.85 0.351882,-0.527822 0.540835,-1.243254 0.475,-1.95 -0.06583,-0.706746 -0.451604,-1.457795 -1.25,-1.7 z" id="path7632" inkscape:connector-curvature="0"/>
</svg>